<?xml version="1.0" encoding="UTF-8"?>
<svg id="Layer_1" data-name="Layer 1" xmlns="http://www.w3.org/2000/svg" viewBox="0 0 212.6 212.6">
  <defs>
    <style>
      .cls-1 {
        fill-rule: evenodd;
      }
    </style>
  </defs>
  <path class="cls-1" d="M75.9,36.3h60.3c11.2,0,20.4,9.2,20.4,20.4v97.7c0,11.2-9.2,20.4-20.4,20.4h-60.3c-11.2,0-20.4-9.2-20.4-20.4V56.7c0-11.2,9.2-20.4,20.4-20.4h0Zm30.1,161.6c-5.2,0-9.3-4.2-9.3-9.3s4.2-9.3,9.3-9.3,9.3,4.2,9.3,9.3c.1,5-4.1,9.3-9.3,9.3h0ZM69.8,8.9c-13.5,0-24.5,11-24.5,24.5V177.6c0,13.5,11,24.5,24.5,24.5h72.6c13.5,0,24.5-11,24.5-24.5V33.5c0-13.5-11-24.5-24.5-24.5H69.8v-.1Zm10.6,10.4h51.5c3.7,0,3.7,5.5,0,5.5h-51.5c-3.8,.1-3.8-5.5,0-5.5Z"/>
</svg>