<?xml version="1.0" encoding="UTF-8"?>
<svg id="Layer_1" data-name="Layer 1" xmlns="http://www.w3.org/2000/svg" viewBox="0 0 212.6 212.6">
  <path d="M12.98,162.06H81.73v32.35h-12.13c-2.22,0-4.04,1.82-4.04,4.04s1.82,4.04,4.04,4.04h72.8c2.22,0,4.04-1.82,4.04-4.04s-1.82-4.04-4.04-4.04h-12.13v-32.35h68.75c2.22,0,4.04-1.78,4.04-4.04V12.42c0-2.22-1.82-4.04-4.04-4.04H12.98c-2.22,0-4.04,1.82-4.04,4.04V158.01c0,2.26,1.82,4.04,4.04,4.04ZM25.11,28.6c0-2.22,1.82-4.04,4.04-4.04H182.84c2.22,0,4.04,1.82,4.04,4.04v113.24c0,2.26-1.82,4.04-4.04,4.04H29.15c-2.22,0-4.04-1.78-4.04-4.04V28.6Z"/>
</svg>