<?xml version="1.0" encoding="utf-8"?>
<!-- Generator: Adobe Illustrator 26.2.1, SVG Export Plug-In . SVG Version: 6.00 Build 0)  -->
<svg version="1.1" id="Layer_1" xmlns="http://www.w3.org/2000/svg" xmlns:xlink="http://www.w3.org/1999/xlink" x="0px" y="0px"
	 viewBox="0 0 84.2 47.7" style="enable-background:new 0 0 84.2 47.7;" xml:space="preserve">
<style type="text/css">
	.st0{fill:#FFBD12;}
</style>
<path class="st0" d="M76,17.2c-1.8,0-3.6,1.8-5.3,2.2c-1.8,0.4-3.6-0.4-5.3-2.6c-1.8-2.2-3.5-5.7-5.3-6.2c-1.8-0.4-3.5,2.2-5.3,0.9
	c-1.8-1.3-3.5-6.6-5.3-6.2c-1.7,0.4-3.5,6.6-5.3,7c-1.7,0.4-3.5-7.8-5.3-7.4c-1.7,0.4-3.5,3.6-5.3,5.8c-1.7,2.2-3.5,3.4-5.3-0.5
	c-1.8-4-3.6-7.1-5.3-8c-1.8-0.9-3.6,3.5-5.3,7.5c-1.8,4-3.6,7.5-5.3,6.2c-1.8-1.3-3.6-7.5-5.3-7.5c-2.1,0-3.4,5.7-3.9,7.5
	C1.6,20.3,1.2,24.4,2.5,29l0,0c0.9,3.1,2.6,9.2,4.4,9.2c1.8,0,3.5-6.2,5.3-7.5c1.8-1.3,3.5,2.2,5.3,6.2c1.8,4,3.5,8.4,5.3,7.5
	c1.8-0.9,3.5-4,5.3-8c1.8-4,3.5-2.7,5.3-0.5c1.8,2.2,3.6,5.4,5.3,5.8c1.8,0.4,3.6-7.8,5.3-7.4c1.8,0.4,3.6,6.6,5.3,7
	c1.8,0.4,3.5-4.8,5.3-6.2c1.8-1.3,3.5,1.3,5.3,0.9c1.8-0.4,3.5-4,5.3-6.2c1.8-2.2,3.5-3.1,5.3-2.6c1.8,0.4,3.5,2.2,5.3,2.2
	c0,0,6.7,1.5,6.7-6.2S76,17.2,76,17.2z"/>
</svg>
