<?xml version="1.0" encoding="UTF-8"?>
<svg id="Layer_1" data-name="Layer 1" xmlns="http://www.w3.org/2000/svg" viewBox="0 0 212.6 212.6">
  <defs>
    <style>
      .cls-1 {
        fill-rule: evenodd;
      }
    </style>
  </defs>
  <path class="cls-1" d="M165.4,202.5H48c-6.2,0-11.2-5-11.2-11.2V20c0-6.2,5-11.2,11.2-11.2h117.4c6.2,0,11.2,5,11.2,11.2h0V191.3c0,6.1-5.1,11.2-11.2,11.2h0Zm-58.7-3.6c3.2,0,5.9-2.6,5.9-5.9s-2.6-5.9-5.9-5.9-5.9,2.6-5.9,5.9h0c0,3.2,2.7,5.9,5.9,5.9ZM165.8,19.5H47.5V184.1h118.2V19.5h.1Z"/>
</svg>