<svg width="24" height="25" viewBox="0 0 24 25" fill="none" xmlns="http://www.w3.org/2000/svg">
<g clip-path="url(#clip0_197_582)">
<path d="M3 13.13C3 14.3119 3.23279 15.4822 3.68508 16.5742C4.13738 17.6661 4.80031 18.6582 5.63604 19.494C6.47177 20.3297 7.46392 20.9926 8.55585 21.4449C9.64778 21.8972 10.8181 22.13 12 22.13C13.1819 22.13 14.3522 21.8972 15.4442 21.4449C16.5361 20.9926 17.5282 20.3297 18.364 19.494C19.1997 18.6582 19.8626 17.6661 20.3149 16.5742C20.7672 15.4822 21 14.3119 21 13.13C21 11.9481 20.7672 10.7778 20.3149 9.68585C19.8626 8.59392 19.1997 7.60177 18.364 6.76604C17.5282 5.93032 16.5361 5.26738 15.4442 4.81509C14.3522 4.3628 13.1819 4.13 12 4.13C10.8181 4.13 9.64778 4.3628 8.55585 4.81509C7.46392 5.26738 6.47177 5.93032 5.63604 6.76604C4.80031 7.60177 4.13738 8.59392 3.68508 9.68585C3.23279 10.7778 3 11.9481 3 13.13Z" stroke="black" stroke-width="1.5" stroke-linecap="round" stroke-linejoin="round"/>
<path d="M6 23.63L7.386 20.859" stroke="black" stroke-width="1.5" stroke-linecap="round" stroke-linejoin="round"/>
<path d="M11.9999 13.13H8.60889" stroke="#4287f5" stroke-width="1.5" stroke-linecap="round" stroke-linejoin="round"/>
<path d="M12 7.88V13.13" stroke="#4287f5" stroke-width="1.5" stroke-linecap="round" stroke-linejoin="round"/>
<path d="M1.5 4.13L5.25 1.13" stroke="black" stroke-width="1.5" stroke-linecap="round" stroke-linejoin="round"/>
<path d="M17.9998 23.63L16.6138 20.858" stroke="black" stroke-width="1.5" stroke-linecap="round" stroke-linejoin="round"/>
<path d="M22.5 4.13L18.75 1.13" stroke="black" stroke-width="1.5" stroke-linecap="round" stroke-linejoin="round"/>
</g>
<defs>
<clipPath id="clip0_197_582">
<rect width="24" height="24" fill="white" transform="translate(0 0.380005)"/>
</clipPath>
</defs>
</svg>
