<?xml version="1.0" encoding="UTF-8"?>
<svg id="Layer_2" xmlns="http://www.w3.org/2000/svg" viewBox="0 0 178.34 48.07">
  <defs>
    <style>
      .cls-1 {
        fill: none;
        stroke: #231f20;
        stroke-linecap: round;
        stroke-linejoin: round;
        stroke-width: 11px;
      }
    </style>
  </defs>
  <g id="band_3">
    <path class="cls-1" d="M5.5,41.42c.36,0,.36.02.73.02s.37-.43.73-.43.37.82.73.82.36.59.73.59.36-1.1.73-1.1.36.27.73.27.36.2.73.2.37-.58.73-.58.37,1.18.73,1.18.37-.23.73-.23.36-.84.73-.84.37-.14.73-.14.36.97.72.97.36-.79.73-.79.36.99.73.99.37-.69.73-.69.37.01.73.01.37.1.73.1.36-.36.73-.36.37-.42.73-.42.37.46.73.46.37-.29.73-.29.37-.16.73-.16.37,1.16.73,1.16.37-.41.73-.41.37-.35.73-.35.37.9.73.9.37-1.39.74-1.39.37.87.74.87.37-.61.74-.61.37.21.74.21c.24,0,.49.76.73.75s.44-1.02.67-1.03.47.1.71.08.57.96.81.94.34-1.14.58-1.18.47.02.71-.02.57.5.8.46.51.05.74,0,.58.32.81.26.35-.61.58-.67.55.15.78.08.12-1.2.34-1.28.73.66.96.58.57.12.79.03.54,0,.76-.09.11-.97.32-1.07.36-.34.58-.45.35-.35.56-.46,1,.82,1.21.7.36-.38.56-.5.23-.57.43-.7.69.16.89.03-.36-1.36-.16-1.5.84.34,1.03.2-.01-.79.17-.94.92.36,1.1.2-.38-1.16-.2-1.32.53-.11.7-.28.77.11.94-.06.09-.59.25-.76.2-.45.36-.63,1.09.31,1.25.13-.26-.84-.11-1.03.83.03.97-.16,0-.6.15-.8.15-.49.28-.69.8-.03.93-.22-.46-.89-.32-1.09.12-.5.26-.69,1.17.26,1.31.06.07-.53.22-.72-.27-.79-.13-.99-.14-.71,0-.9,1.3.4,1.45.21.42-.27.57-.46-.23-.79-.08-.98.5-.21.65-.39-.37-.93-.22-1.11.42-.27.58-.46.83.09.99-.09-.33-.92-.17-1.1.95.21,1.11.03-.07-.71.1-.88.65-.04.82-.21-.42-1.07-.26-1.24,1.15.45,1.31.28-.42-1.1-.25-1.27.62-.06.79-.23.69.03.87-.13.19-.5.36-.66.93.32,1.11.16-.3-1.05-.12-1.21.15-.56.34-.71,1.11.59,1.3.43.09-.63.28-.78,0-.77.19-.91.28-.44.47-.58.25-.49.44-.63,1.27.94,1.47.8-.37-1.37-.17-1.5,1.03.66,1.23.53-.18-1.16.02-1.29.73.25.93.12.55,0,.76-.13-.08-1.11.12-1.22.95.71,1.16.6-.07-1.15.14-1.26.48-.13.7-.23.48-.13.69-.24.43-.24.65-.34.35-.43.57-.53.74.53.96.44.71.55.94.46.34-.42.57-.5.16-1.03.38-1.1.5-.03.73-.1.59.32.82.26.42-.28.65-.34.61.54.85.49.46-.06.69-.1.4-.38.63-.42.28-1.23.52-1.27.68,1.39.91,1.36.44-.16.68-.18.44-.31.68-.33.43-.65.67-.66.5.46.74.45.46-1.02.7-1.02.48.88.72.89.51-.76.75-.75.44.76.68.78.56-.87.79-.84.35,1.26.59,1.28.61-1.01.85-.98.26,1.47.5,1.51.5-.16.73-.11.62-.69.85-.64.29.88.53.93.38.39.61.45.69-.76.92-.7.28.73.51.8.41.25.64.32.42.19.65.27.65-.41.87-.33.55-.11.78-.02.58-.14.8-.04.33.46.55.56.27.56.49.66.41.23.63.34.34.38.56.49.89-.71,1.11-.6-.06,1.15.15,1.26.32.4.53.51.58-.07.79.05.53.03.74.15.79-.37.99-.25-.14,1.13.06,1.26.12.67.32.8.76-.3.96-.17.82-.36,1.02-.22.45.21.64.34-.26,1.18-.07,1.32.71-.16.9-.02.3.39.49.54.17.56.36.71.96-.45,1.15-.3-.16.96.02,1.12.69-.08.87.07,0,.73.19.89,1.06-.5,1.24-.34-.14.89.04,1.05.05.65.23.81.58.07.76.23.99-.36,1.17-.2-.34,1.06-.17,1.23.18.5.35.66.46.21.63.37.44.23.61.4.2.47.37.64.42.25.59.43.57.12.73.29.44.25.6.42.26.41.43.59-.15.78.02.96.9-.17,1.06.01,0,.65.15.82.37.31.53.49.19.47.35.65.45.24.61.42.05.58.21.77.04.59.19.78.81-.05.96.13.91-.12,1.06.07-.42.97-.27,1.16,1.09-.25,1.24-.06-.39.93-.24,1.12-.18.78-.02.96.32.39.48.57.76-.02.92.16-.11.79.06.96,1.25-.57,1.42-.4.29.38.47.54.04.67.22.83.76-.17.95-.02.23.46.42.61-.02.84.17.98.71-.17.91-.04.58-.03.78.1.28.43.49.56.13.72.34.84.73-.34.94-.22.48.08.7.19.44.15.66.25.08.98.3,1.07.27.63.5.72.88-.95,1.11-.86.14,1.04.37,1.12.34.56.57.63.56-.15.8-.08.49.08.72.14.65-.68.89-.62.31.88.55.92.54-.27.78-.23.54-.4.78-.37.5-.26.74-.24.43.36.67.38.42.94.66.95.5-.15.74-.14.49-.59.73-.59c.36,0,.36.16.72.16s.36-.46.72-.46.36.26.72.26.36-.38.72-.38.36,1.49.72,1.49.36-.21.72-.21.36-1.21.72-1.21.36.5.73.5.36-.14.72-.14.36.74.72.74.36.08.72.08.36.15.72.15.36-.31.72-.31.36.27.72.27.36-.67.73-.67.36-.06.72-.06.36-.39.72-.39.36.13.72.13.36-.12.72-.12.36,1.31.72,1.31.36-.09.72-.09.36-1.31.72-1.31.36.4.73.4.36.83.72.83.36-.23.72-.23.36.16.72.16.36-.62.73-.62.36.65.73.65.36.22.73.22.36-1.43.73-1.43.36-.16.73-.16.36.88.73.88.36.64.73.64.36-1.21.73-1.21.37-.04.73-.04.37,1.03.73,1.03.37-.19.73-.19"/>
  </g>
</svg>