<svg width="36" height="36" viewBox="0 0 36 36" fill="none" xmlns="http://www.w3.org/2000/svg">
<path stroke="#2E2E1F" stroke-opacity="0.12" class="st0" d="M0.5,18C0.5,8.3,8.3,0.5,18,0.5c9.7,0,17.5,7.8,17.5,17.5c0,9.7-7.8,17.5-17.5,17.5C8.3,35.5,0.5,27.7,0.5,18z"
	/>
		<path fill="black" d="M27.6,28c0,0.6-0.5,1.1-1.1,1.1H9.6c-0.6,0-1.1-0.5-1.1-1.1c0-5.3,4.3-9.6,9.6-9.6S27.6,22.7,27.6,28z M18,19.5
			c-4.7,0-8.4,3.8-8.4,8.4c0,0,16.9,0,16.9,0C26.4,23.3,22.7,19.5,18,19.5z M18,17.3c-3.1,0-5.6-2.5-5.6-5.6s2.5-5.6,5.6-5.6
			s5.6,2.5,5.6,5.6S21.1,17.3,18,17.3z M18,16.2c2.5,0,4.5-2,4.5-4.5s-2-4.5-4.5-4.5s-4.5,2-4.5,4.5S15.5,16.2,18,16.2z"/>
</svg>
