<svg width="24" height="25" viewBox="0 0 24 25" fill="none" xmlns="http://www.w3.org/2000/svg">
<g clip-path="url(#clip0_197_674)">
<path d="M12 4.95C8.76415 2.96641 5.07682 1.8387 1.285 1.673C1.21607 1.67007 1.14726 1.68104 1.08266 1.70527C1.01806 1.72949 0.959003 1.76647 0.909 1.814C0.859118 1.86108 0.819307 1.91779 0.791978 1.9807C0.764648 2.04361 0.750367 2.11141 0.75 2.18V18.922C0.750136 19.0539 0.801163 19.1806 0.892447 19.2758C0.983731 19.371 1.10823 19.4273 1.24 19.433C2.95858 19.1882 4.70872 19.2884 6.38813 19.7278C8.06753 20.1672 9.64251 20.9369 11.021 21.992C11.3307 22.1203 11.6682 22.1668 12.001 22.127" stroke="#4287f5" stroke-width="1.5" stroke-linecap="round" stroke-linejoin="round"/>
<path d="M12 4.95C15.2359 2.96641 18.9232 1.8387 22.715 1.673C22.784 1.67007 22.8528 1.68104 22.9174 1.70527C22.982 1.72949 23.041 1.76647 23.091 1.814C23.1413 1.86143 23.1813 1.91863 23.2086 1.98208C23.236 2.04554 23.2501 2.11391 23.25 2.183V18.922C23.2499 19.0539 23.1989 19.1806 23.1076 19.2758C23.0163 19.371 22.8918 19.4273 22.76 19.433C21.0414 19.1882 19.2913 19.2884 17.6119 19.7278C15.9325 20.1672 14.3575 20.9369 12.979 21.992C12.6693 22.1203 12.3319 22.1668 11.999 22.127" stroke="#4287f5" stroke-width="1.5" stroke-linecap="round" stroke-linejoin="round"/>
<path d="M12 4.95V22.137" stroke="#4287f5" stroke-width="1.5" stroke-linecap="round" stroke-linejoin="round"/>
<path d="M2.25 19.354V22.58C2.24979 22.6567 2.26686 22.7325 2.29995 22.8018C2.33305 22.871 2.38131 22.9319 2.44116 22.98C2.50101 23.028 2.57091 23.0619 2.64567 23.0792C2.72043 23.0966 2.79813 23.0968 2.873 23.08C5.87501 22.454 8.93342 22.1384 12 22.138C14.8863 22.1365 17.7641 22.4507 20.582 23.075C20.6568 23.0914 20.7344 23.0909 20.809 23.0734C20.8836 23.0559 20.9533 23.022 21.0131 22.974C21.0729 22.9261 21.1211 22.8653 21.1543 22.7963C21.1875 22.7272 21.2048 22.6516 21.205 22.575V19.338" stroke="black" stroke-width="1.5" stroke-linecap="round" stroke-linejoin="round"/>
</g>
<defs>
<clipPath id="clip0_197_674">
<rect width="24" height="24" fill="white" transform="translate(0 0.380005)"/>
</clipPath>
</defs>
</svg>
