<svg width="36" height="36" viewBox="0 0 36 36" fill="none" xmlns="http://www.w3.org/2000/svg">
<path d="M0.5 18C0.5 8.33502 8.33502 0.5 18 0.5C27.665 0.5 35.5 8.33502 35.5 18C35.5 27.665 27.665 35.5 18 35.5C8.33502 35.5 0.5 27.665 0.5 18Z" stroke="#2E2E1F" stroke-opacity="0.12"/>
<g clip-path="url(#clip0_197_507)">
<path d="M17.7111 24.71L12.6111 19.61C12.1841 19.1829 11.9442 18.6036 11.9443 17.9997C11.9444 17.3957 12.1844 16.8165 12.6116 16.3895C13.0387 15.9625 13.618 15.7227 14.2219 15.7228C14.8259 15.7229 15.4051 15.9629 15.8321 16.39L19.0771 19.634L25.1531 11.534C25.5155 11.0509 26.055 10.7316 26.6528 10.6463C27.2507 10.5609 27.858 10.7166 28.3411 11.079C28.8242 11.4414 29.1435 11.9809 29.2288 12.5788C29.3142 13.1766 29.1585 13.7839 28.7961 14.267L21.1441 24.467C20.9484 24.7283 20.6988 24.9444 20.4122 25.1007C20.1256 25.257 19.8087 25.3498 19.4831 25.3729C19.1575 25.3959 18.8307 25.3487 18.5249 25.2343C18.2192 25.1199 17.9416 24.9411 17.7111 24.71Z" stroke="black" stroke-width="1.5" stroke-linejoin="round"/>
<path d="M17.7051 14.537L19.9581 11.531C20.2351 11.1622 20.6175 10.8861 21.0548 10.7392C21.492 10.5922 21.9635 10.5814 22.4071 10.708" stroke="black" stroke-width="1.5" stroke-linecap="round" stroke-linejoin="round"/>
<path d="M14.891 25.246C14.4853 25.3902 14.047 25.4163 13.627 25.3215C13.2069 25.2266 12.8224 25.0146 12.518 24.71L7.41803 19.61C7.05237 19.2453 6.82156 18.7671 6.76347 18.2539C6.70539 17.7408 6.82348 17.2231 7.09837 16.7859C7.37326 16.3486 7.78861 16.0179 8.27626 15.8478C8.76391 15.6778 9.29488 15.6785 9.78203 15.85" stroke="black" stroke-width="1.5" stroke-linecap="round" stroke-linejoin="round"/>
</g>
<defs>
<clipPath id="clip0_197_507">
<rect width="24" height="24" fill="white" transform="translate(6 6)"/>
</clipPath>
</defs>
</svg>
