<svg xmlns="http://www.w3.org/2000/svg" version="1.1" viewBox="-5.0 -10.0 110.0 135.0" fill="white">
 <path d="m50 10c-5.6758 0-11.121 2.2539-15.137 6.2695s-6.2695 9.4609-6.2695 15.137 2.2578 11.121 6.2695 15.137c4.0156 4.0156 9.4609 6.2734 15.137 6.2734 5.6797 0 11.125-2.2578 15.141-6.2734s6.2695-9.4609 6.2695-15.137-2.2539-11.121-6.2695-15.137-9.4609-6.2695-15.141-6.2695zm-12.832 42.816c-14 5.1875-23.926 18.625-23.926 34.469l-0.003907 2.7148h73.523v-2.7148c0-15.816-9.8906-29.234-23.848-34.441-3.9609 2.1562-8.4023 3.2891-12.914 3.293-4.4883-0.023438-8.8945-1.1641-12.832-3.3203z"/>
</svg>