<?xml version="1.0" encoding="utf-8"?>
<!-- Generator: Adobe Illustrator 26.2.1, SVG Export Plug-In . SVG Version: 6.00 Build 0)  -->
<svg version="1.1" id="Layer_1" xmlns="http://www.w3.org/2000/svg" xmlns:xlink="http://www.w3.org/1999/xlink" x="0px" y="0px"
	 viewBox="0 0 36 36" style="enable-background:new 0 0 36 36;" xml:space="preserve">
<style type="text/css">
	.st0{fill:none;stroke:#2E2E1F;stroke-opacity:0.12;}
	.st1{display:none;}
	.st2{display:none;fill-rule:evenodd;clip-rule:evenodd;}
</style>
<path class="st0" d="M0.5,18C0.5,8.3,8.3,0.5,18,0.5S35.5,8.3,35.5,18S27.7,35.5,18,35.5S0.5,27.7,0.5,18z"/>
<path class="st1" d="M27.6,28c0,0.6-0.5,1.1-1.1,1.1H9.6c-0.6,0-1.1-0.5-1.1-1.1c0-5.3,4.3-9.6,9.6-9.6S27.6,22.7,27.6,28z M18,19.5
	c-4.7,0-8.4,3.8-8.4,8.4h16.9C26.4,23.3,22.7,19.5,18,19.5z M18,17.3c-3.1,0-5.6-2.5-5.6-5.6s2.5-5.6,5.6-5.6s5.6,2.5,5.6,5.6
	S21.1,17.3,18,17.3z M18,16.2c2.5,0,4.5-2,4.5-4.5s-2-4.5-4.5-4.5s-4.5,2-4.5,4.5S15.5,16.2,18,16.2z"/>
<path class="st2" d="M7.3,14.1c-0.6-1.6-0.8-3.3-0.5-4.7C7.1,8.1,7.7,7,9,6.2C9.2,6,9.4,5.9,9.7,5.7c0.2-0.1,0.5-0.2,0.7-0.3
	c0.4-0.1,0.9-0.1,1.3,0c0.4,0.1,0.8,0.4,1,0.8l2.3,3.7c0.2,0.4,0.3,0.8,0.3,1.2c0,0.4-0.2,0.8-0.5,1.1l-1.2,1.5
	c-0.2,0.2-0.3,0.5-0.3,0.7c0,0.3,0,0.5,0.2,0.8c0.8,1.4,1.9,2.8,3.1,4.1c1.3,1.3,2.7,2.4,4.1,3.1c0.3,0.1,0.5,0.2,0.8,0.2
	c0.3,0,0.5-0.1,0.7-0.3l1.5-1.2c0.3-0.3,0.7-0.4,1.1-0.5c0.4,0,0.8,0.1,1.2,0.3l3.7,2.3c0.4,0.2,0.7,0.6,0.8,1
	c0.1,0.4,0.2,0.8,0,1.3c-0.1,0.2-0.2,0.5-0.3,0.7c-0.1,0.2-0.3,0.5-0.4,0.7c-0.8,1.2-2,1.9-3.2,2.2c-1.4,0.3-3.1,0.1-4.7-0.5
	c-2.9-1-6.1-3.2-8.7-5.8S8.3,17.1,7.3,14.1L7.3,14.1z M7.4,9.5c-0.3,1.3,0,2.9,0.5,4.4c1,2.8,3.1,5.9,5.7,8.5
	c2.6,2.6,5.6,4.7,8.5,5.7c1.5,0.5,3.1,0.8,4.4,0.5c1.1-0.2,2.1-0.8,2.9-1.9l0,0c0.1-0.2,0.3-0.4,0.4-0.6c0.1-0.2,0.2-0.4,0.3-0.6
	c0.1-0.3,0.1-0.6,0-0.9c-0.1-0.3-0.3-0.5-0.6-0.7l-3.7-2.3c-0.3-0.2-0.5-0.2-0.8-0.2c-0.3,0-0.6,0.1-0.8,0.3l-1.5,1.2
	c-0.3,0.3-0.7,0.4-1.1,0.5c-0.4,0-0.8,0-1.1-0.2c-1.5-0.8-2.9-1.9-4.2-3.2c-1.3-1.3-2.4-2.8-3.2-4.2c-0.2-0.4-0.3-0.7-0.2-1.1
	c0-0.4,0.2-0.7,0.5-1.1l1.2-1.5c0.2-0.2,0.3-0.5,0.3-0.8c0-0.3,0-0.6-0.2-0.8l-2.3-3.7C12,6.3,11.7,6.1,11.4,6
	c-0.3-0.1-0.6-0.1-0.9,0c-0.2,0.1-0.4,0.2-0.6,0.3C9.7,6.4,9.5,6.5,9.3,6.6l0,0C8.2,7.4,7.6,8.4,7.4,9.5L7.4,9.5z"/>
<g transform="translate(0,-952.36218)">
	<path d="M7,962.4c-0.8,0-1.5,0.7-1.5,1.5v12.8c0,0.8,0.7,1.5,1.5,1.5h22.6c0.8,0,1.5-0.7,1.5-1.5v-12.8c0-0.8-0.7-1.5-1.5-1.5H7z
		 M7,963h22.6c0.1,0,0.3,0,0.4,0.1l-10.9,9.7c-0.4,0.3-1.1,0.3-1.5,0l-10.9-9.7C6.8,963.1,6.9,963,7,963z M6.2,963.5l8,7.1l-8,6.6
		c-0.1-0.1-0.1-0.3-0.1-0.4v-12.8C6.1,963.8,6.1,963.7,6.2,963.5z M30.4,963.5c0.1,0.1,0.1,0.3,0.1,0.4v12.8c0,0.2,0,0.3-0.1,0.4
		l-8-6.6C22.5,970.6,30.4,963.5,30.4,963.5z M14.7,971.1l2.5,2.2c0.6,0.6,1.7,0.6,2.3,0l2.5-2.2l8,6.6c-0.1,0-0.2,0.1-0.4,0.1H7
		c-0.1,0-0.3,0-0.4-0.1L14.7,971.1z"/>
</g>
</svg>
