<?xml version="1.0" encoding="utf-8"?>
<!-- Generator: Adobe Illustrator 26.2.1, SVG Export Plug-In . SVG Version: 6.00 Build 0)  -->
<svg version="1.1" id="Layer_1" xmlns="http://www.w3.org/2000/svg" xmlns:xlink="http://www.w3.org/1999/xlink" x="0px" y="0px"
	 viewBox="0 0 103 134" style="enable-background:new 0 0 103 134;" xml:space="preserve">
<style type="text/css">
	.st0{fill:#FFFFFF;stroke:#231F20;stroke-width:10;stroke-linecap:round;stroke-linejoin:round;stroke-miterlimit:10;}
</style>
<g id="sliders">
	<path class="st0" d="M72,126.9H31.9c-13.5,0-24.5-12.1-24.5-27l3.8-42.4c0.4-4.7-0.1-9.5-1.7-14l-0.6-1.7
		C4.3,28,11.1,12.5,24.5,8.1c2.4-0.8,4.9-1.2,7.4-1.2H72c2.5,0,5,0.4,7.4,1.2C92.7,12.5,99.6,28,94.9,41.8l-0.6,1.7
		c-1.5,4.5-2.1,9.2-1.7,14l3.8,42.4C96.5,114.8,85.5,126.9,72,126.9z"/>
</g>
</svg>
