<svg id="Layer_1" data-name="Layer 1" xmlns="http://www.w3.org/2000/svg" width="36" height="36" viewBox="0 0 36 36"><defs><style>.cls-1{fill:none;stroke:#2e2e1f;stroke-opacity:0.12;}</style></defs><path class="cls-1" d="M.5,18A17.5,17.5,0,1,1,18,35.5,17.46,17.46,0,0,1,.5,18Z"/><path d="M29.78,26l-5-12.45a.65.65,0,0,0-1.15,0L18.67,26a.62.62,0,0,0,.34.81.63.63,0,0,0,.81-.35l1.34-3.34h6.13l1.34,3.34a.6.6,0,0,0,.57.39.59.59,0,0,0,.23,0,.62.62,0,0,0,.35-.81Zm-3.07-4.13h-5l-.08,0,2.57-6.43,2.58,6.43-.09,0Zm-9.65-.55a18.39,18.39,0,0,1-3.12-2.2,11.34,11.34,0,0,0,3.4-7.2h1.91a.63.63,0,0,0,0-1.25H13.64V8.76a.62.62,0,1,0-1.24,0v1.87H6.8a.63.63,0,1,0,0,1.25H8.7a11.35,11.35,0,0,0,3.42,7.18A19.23,19.23,0,0,1,7.8,21.89a.61.61,0,0,0-.33.81.62.62,0,0,0,.57.38.74.74,0,0,0,.25,0A19.72,19.72,0,0,0,13,19.94a20.36,20.36,0,0,0,3.41,2.43.66.66,0,0,0,.3.07.64.64,0,0,0,.55-.31.62.62,0,0,0-.24-.85Zm-1-9.4A10.19,10.19,0,0,1,13,18.2,10.14,10.14,0,0,1,10,11.88Z"/></svg>