<svg width="25" height="25" viewBox="0 0 25 25" fill="none" xmlns="http://www.w3.org/2000/svg">
	<path fill="black" d="M13,17.9L9.9,21c-0.7,0.7-1.7,1.1-2.7,1.1s-2-0.4-2.7-1.1l-0.9-0.9c-0.7-0.7-1.1-1.7-1.1-2.7s0.4-2,1.1-2.7L7.1,11
		c1.5-1.5,4-1.5,5.5,0l1.3,1.3c0.4,0.4,1,0.4,1.3,0c0.4-0.4,0.4-1,0-1.3l-1.3-1.3c-2.2-2.2-5.9-2.2-8.1,0l-3.6,3.6
		c-1.1,1.1-1.7,2.5-1.7,4s0.6,3,1.7,4l0.9,0.9c1.1,1.1,2.5,1.7,4,1.7s3-0.6,4-1.7l3.2-3.2c0.4-0.4,0.4-1,0-1.3
		C14,17.5,13.4,17.5,13,17.9z"/>
	<path class="st0" fill="#4287F5" d="M20.9,2.7c-1.1-1.1-2.5-1.7-4-1.7s-3,0.6-4,1.7l-2.7,2.7c-0.4,0.4-0.4,1,0,1.3c0.4,0.4,1,0.4,1.3,0L14.1,4
		c0.7-0.7,1.7-1.1,2.7-1.1s2,0.4,2.7,1.1l0.9,0.9c0.7,0.7,1.1,1.7,1.1,2.7s-0.4,2-1.1,2.7l-3.2,3.2c-0.7,0.7-1.7,1.1-2.7,1.1
		s-2-0.4-2.7-1.1l-1.3-1.3c-0.4-0.4-1-0.4-1.3,0c-0.4,0.4-0.4,1,0,1.3l1.3,1.3c1.1,1.1,2.5,1.7,4,1.7c1.5,0,3-0.6,4-1.7l3.2-3.2
		c1.1-1.1,1.7-2.5,1.7-4s-0.6-3-1.7-4L20.9,2.7z"/>
</svg>
