<svg width="36" height="37" viewBox="0 0 36 37" fill="none" xmlns="http://www.w3.org/2000/svg">
<path d="M0.5 18.38C0.5 8.71502 8.33502 0.880005 18 0.880005C27.665 0.880005 35.5 8.71502 35.5 18.38C35.5 28.045 27.665 35.88 18 35.88C8.33502 35.88 0.5 28.045 0.5 18.38Z" stroke="#2E2E1F" stroke-opacity="0.12"/>
<g clip-path="url(#clip0_462_332)">
<path d="M22.5 10.43C22.1022 10.43 21.7206 10.588 21.4393 10.8693C21.158 11.1506 21 11.5322 21 11.93V28.58C20.9999 28.7138 20.9641 28.8451 20.8962 28.9604C20.8282 29.0757 20.7307 29.1707 20.6137 29.2356C20.4967 29.3005 20.3644 29.3329 20.2307 29.3294C20.0969 29.326 19.9665 29.2868 19.853 29.216L15 26.18L10.147 29.213C10.0337 29.2837 9.90357 29.3228 9.77007 29.3264C9.63657 29.33 9.50453 29.2979 9.38761 29.2333C9.27068 29.1688 9.17311 29.0742 9.10497 28.9594C9.03683 28.8445 9.00059 28.7135 9 28.58V11.93C9 10.7365 9.47411 9.59193 10.318 8.74801C11.1619 7.9041 12.3065 7.42999 13.5 7.42999H22.5C23.6935 7.42999 24.8381 7.9041 25.682 8.74801C26.5259 9.59193 27 10.7365 27 11.93V15.68C27 15.8789 26.921 16.0697 26.7803 16.2103C26.6397 16.351 26.4489 16.43 26.25 16.43H21" stroke="black" stroke-width="1.5" stroke-linecap="round" stroke-linejoin="round"/>
</g>
<defs>
<clipPath id="clip0_462_332">
<rect width="24" height="24" fill="white" transform="translate(6 6.38)"/>
</clipPath>
</defs>
</svg>
