<svg id="Layer_1" data-name="Layer 1" xmlns="http://www.w3.org/2000/svg" width="36" height="36" viewBox="0 0 36 36"><defs><style>.cls-1{fill:none;stroke:#2e2e1f;stroke-opacity:0.12;}</style></defs><path class="cls-1" d="M.5,18A17.5,17.5,0,1,1,18,35.5,17.46,17.46,0,0,1,.5,18Z"/><path d="M27.89,18a21.83,21.83,0,0,0-2.43-9,8.8,8.8,0,0,0-5.53-4.31.67.67,0,0,0-.58.13.65.65,0,0,0-.26.53V21.58a5.27,5.27,0,0,0-2.32-1.18,7.57,7.57,0,0,0-4.62.44A6.65,6.65,0,0,0,8.4,24.46a4.17,4.17,0,0,0,.1,3.31,4.77,4.77,0,0,0,3.28,2.45,7.07,7.07,0,0,0,1.6.18,7.85,7.85,0,0,0,3-.62,6.65,6.65,0,0,0,3.75-3.62,4.4,4.4,0,0,0,.29-1.69v-11a10.27,10.27,0,0,1,6.19,4.95.69.69,0,0,0,.79.3.67.67,0,0,0,.47-.7Zm-9,7.68a5.37,5.37,0,0,1-3,2.85,6.08,6.08,0,0,1-3.78.37,3.41,3.41,0,0,1-2.38-1.72,2.76,2.76,0,0,1-.05-2.24,5.37,5.37,0,0,1,3-2.85,6.55,6.55,0,0,1,2.5-.52,5.4,5.4,0,0,1,1.28.15,3.41,3.41,0,0,1,2.38,1.72,2.56,2.56,0,0,1,.26,1v0a2.92,2.92,0,0,1-.21,1.21Zm1.56-13.63V6.25a7.48,7.48,0,0,1,3.85,3.41,17.42,17.42,0,0,1,1.93,5.88,11.54,11.54,0,0,0-5.78-3.49Z"/></svg>