<svg width="118" height="38" viewBox="0 0 118 38" fill="none" xmlns="http://www.w3.org/2000/svg">
<path d="M34.0394 18.07V0.64H36.6794V22H33.4994L22.3394 4.66V22H19.6994V0.64H22.7894L34.0394 18.07ZM56.1293 18.07V0.64H58.7693V22H55.5893L44.4293 4.66V22H41.7893V0.64H44.8793L56.1293 18.07ZM62.3791 0.64H79.4491V3.07H72.3091V22H69.5191V3.07H62.3791V0.64ZM91.7993 15.82L96.9893 0.64H99.9593L92.3093 22H89.0993L81.3893 0.64H84.4793L89.6993 15.82L90.7493 19.06L91.7993 15.82Z" fill="black"/>
<path d="M0.355508 29.245H1.55551V30.475H1.58551C2.11551 29.535 2.95551 29.065 4.10551 29.065C4.61551 29.065 5.04051 29.135 5.38051 29.275C5.72051 29.415 5.99551 29.61 6.20551 29.86C6.41551 30.11 6.56051 30.41 6.64051 30.76C6.73051 31.1 6.77551 31.48 6.77551 31.9V37H5.50051V31.75C5.50051 31.27 5.36051 30.89 5.08051 30.61C4.80051 30.33 4.41551 30.19 3.92551 30.19C3.53551 30.19 3.19551 30.25 2.90551 30.37C2.62551 30.49 2.39051 30.66 2.20051 30.88C2.01051 31.1 1.86551 31.36 1.76551 31.66C1.67551 31.95 1.63051 32.27 1.63051 32.62V37H0.355508V29.245ZM9.62047 33.13C9.62047 33.6 9.68047 34.02 9.80047 34.39C9.93047 34.75 10.1055 35.055 10.3255 35.305C10.5455 35.545 10.8005 35.73 11.0905 35.86C11.3905 35.99 11.7055 36.055 12.0355 36.055C12.3655 36.055 12.6755 35.99 12.9655 35.86C13.2655 35.73 13.5255 35.545 13.7455 35.305C13.9655 35.055 14.1355 34.75 14.2555 34.39C14.3855 34.02 14.4505 33.6 14.4505 33.13C14.4505 32.66 14.3855 32.245 14.2555 31.885C14.1355 31.515 13.9655 31.205 13.7455 30.955C13.5255 30.705 13.2655 30.515 12.9655 30.385C12.6755 30.255 12.3655 30.19 12.0355 30.19C11.7055 30.19 11.3905 30.255 11.0905 30.385C10.8005 30.515 10.5455 30.705 10.3255 30.955C10.1055 31.205 9.93047 31.515 9.80047 31.885C9.68047 32.245 9.62047 32.66 9.62047 33.13ZM8.27047 33.13C8.27047 32.56 8.35047 32.03 8.51047 31.54C8.67047 31.04 8.91047 30.61 9.23047 30.25C9.55047 29.88 9.94547 29.59 10.4155 29.38C10.8855 29.17 11.4255 29.065 12.0355 29.065C12.6555 29.065 13.1955 29.17 13.6555 29.38C14.1255 29.59 14.5205 29.88 14.8405 30.25C15.1605 30.61 15.4005 31.04 15.5605 31.54C15.7205 32.03 15.8005 32.56 15.8005 33.13C15.8005 33.7 15.7205 34.23 15.5605 34.72C15.4005 35.21 15.1605 35.64 14.8405 36.01C14.5205 36.37 14.1255 36.655 13.6555 36.865C13.1955 37.065 12.6555 37.165 12.0355 37.165C11.4255 37.165 10.8855 37.065 10.4155 36.865C9.94547 36.655 9.55047 36.37 9.23047 36.01C8.91047 35.64 8.67047 35.21 8.51047 34.72C8.35047 34.23 8.27047 33.7 8.27047 33.13ZM21.4786 29.245H22.6786V30.475H22.7086C23.2386 29.535 24.0786 29.065 25.2286 29.065C25.7386 29.065 26.1636 29.135 26.5036 29.275C26.8436 29.415 27.1186 29.61 27.3286 29.86C27.5386 30.11 27.6836 30.41 27.7636 30.76C27.8536 31.1 27.8986 31.48 27.8986 31.9V37H26.6236V31.75C26.6236 31.27 26.4836 30.89 26.2036 30.61C25.9236 30.33 25.5386 30.19 25.0486 30.19C24.6586 30.19 24.3186 30.25 24.0286 30.37C23.7486 30.49 23.5136 30.66 23.3236 30.88C23.1336 31.1 22.9886 31.36 22.8886 31.66C22.7986 31.95 22.7536 32.27 22.7536 32.62V37H21.4786V29.245ZM35.1985 32.38C35.1785 32.08 35.1085 31.795 34.9885 31.525C34.8785 31.255 34.7235 31.025 34.5235 30.835C34.3335 30.635 34.1035 30.48 33.8335 30.37C33.5735 30.25 33.2835 30.19 32.9635 30.19C32.6335 30.19 32.3335 30.25 32.0635 30.37C31.8035 30.48 31.5785 30.635 31.3885 30.835C31.1985 31.035 31.0485 31.27 30.9385 31.54C30.8285 31.8 30.7635 32.08 30.7435 32.38H35.1985ZM36.4285 34.54C36.2585 35.41 35.8835 36.065 35.3035 36.505C34.7235 36.945 33.9935 37.165 33.1135 37.165C32.4935 37.165 31.9535 37.065 31.4935 36.865C31.0435 36.665 30.6635 36.385 30.3535 36.025C30.0435 35.665 29.8085 35.235 29.6485 34.735C29.4985 34.235 29.4135 33.69 29.3935 33.1C29.3935 32.51 29.4835 31.97 29.6635 31.48C29.8435 30.99 30.0935 30.565 30.4135 30.205C30.7435 29.845 31.1285 29.565 31.5685 29.365C32.0185 29.165 32.5085 29.065 33.0385 29.065C33.7285 29.065 34.2985 29.21 34.7485 29.5C35.2085 29.78 35.5735 30.14 35.8435 30.58C36.1235 31.02 36.3135 31.5 36.4135 32.02C36.5235 32.54 36.5685 33.035 36.5485 33.505H30.7435C30.7335 33.845 30.7735 34.17 30.8635 34.48C30.9535 34.78 31.0985 35.05 31.2985 35.29C31.4985 35.52 31.7535 35.705 32.0635 35.845C32.3735 35.985 32.7385 36.055 33.1585 36.055C33.6985 36.055 34.1385 35.93 34.4785 35.68C34.8285 35.43 35.0585 35.05 35.1685 34.54H36.4285ZM43.2552 32.38C43.2352 32.08 43.1652 31.795 43.0452 31.525C42.9352 31.255 42.7802 31.025 42.5802 30.835C42.3902 30.635 42.1602 30.48 41.8902 30.37C41.6302 30.25 41.3402 30.19 41.0202 30.19C40.6902 30.19 40.3902 30.25 40.1202 30.37C39.8602 30.48 39.6352 30.635 39.4452 30.835C39.2552 31.035 39.1052 31.27 38.9952 31.54C38.8852 31.8 38.8202 32.08 38.8002 32.38H43.2552ZM44.4852 34.54C44.3152 35.41 43.9402 36.065 43.3602 36.505C42.7802 36.945 42.0502 37.165 41.1702 37.165C40.5502 37.165 40.0102 37.065 39.5502 36.865C39.1002 36.665 38.7202 36.385 38.4102 36.025C38.1002 35.665 37.8652 35.235 37.7052 34.735C37.5552 34.235 37.4702 33.69 37.4502 33.1C37.4502 32.51 37.5402 31.97 37.7202 31.48C37.9002 30.99 38.1502 30.565 38.4702 30.205C38.8002 29.845 39.1852 29.565 39.6252 29.365C40.0752 29.165 40.5652 29.065 41.0952 29.065C41.7852 29.065 42.3552 29.21 42.8052 29.5C43.2652 29.78 43.6302 30.14 43.9002 30.58C44.1802 31.02 44.3702 31.5 44.4702 32.02C44.5802 32.54 44.6252 33.035 44.6052 33.505H38.8002C38.7902 33.845 38.8302 34.17 38.9202 34.48C39.0102 34.78 39.1552 35.05 39.3552 35.29C39.5552 35.52 39.8102 35.705 40.1202 35.845C40.4302 35.985 40.7952 36.055 41.2152 36.055C41.7552 36.055 42.1952 35.93 42.5352 35.68C42.8852 35.43 43.1152 35.05 43.2252 34.54H44.4852ZM46.8568 33.19C46.8568 33.55 46.9018 33.905 46.9918 34.255C47.0918 34.595 47.2368 34.9 47.4268 35.17C47.6268 35.44 47.8768 35.655 48.1768 35.815C48.4868 35.975 48.8468 36.055 49.2568 36.055C49.6868 36.055 50.0518 35.97 50.3518 35.8C50.6518 35.63 50.8968 35.41 51.0868 35.14C51.2768 34.86 51.4118 34.545 51.4918 34.195C51.5818 33.845 51.6268 33.49 51.6268 33.13C51.6268 32.75 51.5818 32.385 51.4918 32.035C51.4018 31.675 51.2568 31.36 51.0568 31.09C50.8668 30.82 50.6168 30.605 50.3068 30.445C49.9968 30.275 49.6218 30.19 49.1818 30.19C48.7518 30.19 48.3868 30.275 48.0868 30.445C47.7868 30.615 47.5468 30.84 47.3668 31.12C47.1868 31.4 47.0568 31.72 46.9768 32.08C46.8968 32.44 46.8568 32.81 46.8568 33.19ZM52.8568 37H51.5818V35.95H51.5518C51.3418 36.38 51.0118 36.69 50.5618 36.88C50.1118 37.07 49.6168 37.165 49.0768 37.165C48.4768 37.165 47.9518 37.055 47.5018 36.835C47.0618 36.615 46.6918 36.32 46.3918 35.95C46.1018 35.58 45.8818 35.15 45.7318 34.66C45.5818 34.17 45.5068 33.65 45.5068 33.1C45.5068 32.55 45.5768 32.03 45.7168 31.54C45.8668 31.05 46.0868 30.625 46.3768 30.265C46.6768 29.895 47.0468 29.605 47.4868 29.395C47.9368 29.175 48.4568 29.065 49.0468 29.065C49.2468 29.065 49.4618 29.085 49.6918 29.125C49.9218 29.165 50.1518 29.235 50.3818 29.335C50.6118 29.425 50.8268 29.55 51.0268 29.71C51.2368 29.86 51.4118 30.05 51.5518 30.28H51.5818V26.29H52.8568V37ZM60.7632 29.245H62.3082V30.37H60.7632V35.185C60.7632 35.335 60.7732 35.455 60.7932 35.545C60.8232 35.635 60.8732 35.705 60.9432 35.755C61.0132 35.805 61.1082 35.84 61.2282 35.86C61.3582 35.87 61.5232 35.875 61.7232 35.875H62.3082V37H61.3332C61.0032 37 60.7182 36.98 60.4782 36.94C60.2482 36.89 60.0582 36.805 59.9082 36.685C59.7682 36.565 59.6632 36.395 59.5932 36.175C59.5232 35.955 59.4882 35.665 59.4882 35.305V30.37H58.1682V29.245H59.4882V26.92H60.7632V29.245ZM64.6546 33.13C64.6546 33.6 64.7146 34.02 64.8346 34.39C64.9646 34.75 65.1396 35.055 65.3596 35.305C65.5796 35.545 65.8346 35.73 66.1246 35.86C66.4246 35.99 66.7396 36.055 67.0696 36.055C67.3996 36.055 67.7096 35.99 67.9996 35.86C68.2996 35.73 68.5596 35.545 68.7796 35.305C68.9996 35.055 69.1696 34.75 69.2896 34.39C69.4196 34.02 69.4846 33.6 69.4846 33.13C69.4846 32.66 69.4196 32.245 69.2896 31.885C69.1696 31.515 68.9996 31.205 68.7796 30.955C68.5596 30.705 68.2996 30.515 67.9996 30.385C67.7096 30.255 67.3996 30.19 67.0696 30.19C66.7396 30.19 66.4246 30.255 66.1246 30.385C65.8346 30.515 65.5796 30.705 65.3596 30.955C65.1396 31.205 64.9646 31.515 64.8346 31.885C64.7146 32.245 64.6546 32.66 64.6546 33.13ZM63.3046 33.13C63.3046 32.56 63.3846 32.03 63.5446 31.54C63.7046 31.04 63.9446 30.61 64.2646 30.25C64.5846 29.88 64.9796 29.59 65.4496 29.38C65.9196 29.17 66.4596 29.065 67.0696 29.065C67.6896 29.065 68.2296 29.17 68.6896 29.38C69.1596 29.59 69.5546 29.88 69.8746 30.25C70.1946 30.61 70.4346 31.04 70.5946 31.54C70.7546 32.03 70.8346 32.56 70.8346 33.13C70.8346 33.7 70.7546 34.23 70.5946 34.72C70.4346 35.21 70.1946 35.64 69.8746 36.01C69.5546 36.37 69.1596 36.655 68.6896 36.865C68.2296 37.065 67.6896 37.165 67.0696 37.165C66.4596 37.165 65.9196 37.065 65.4496 36.865C64.9796 36.655 64.5846 36.37 64.2646 36.01C63.9446 35.64 63.7046 35.21 63.5446 34.72C63.3846 34.23 63.3046 33.7 63.3046 33.13ZM80.0077 37H78.6427L75.7627 29.245H77.1877L79.3627 35.71H79.3927L81.5077 29.245H82.8427L80.0077 37ZM90.8827 36.97C90.6627 37.1 90.3577 37.165 89.9677 37.165C89.6377 37.165 89.3727 37.075 89.1727 36.895C88.9827 36.705 88.8877 36.4 88.8877 35.98C88.5377 36.4 88.1277 36.705 87.6577 36.895C87.1977 37.075 86.6977 37.165 86.1577 37.165C85.8077 37.165 85.4727 37.125 85.1527 37.045C84.8427 36.965 84.5727 36.84 84.3427 36.67C84.1127 36.5 83.9277 36.28 83.7877 36.01C83.6577 35.73 83.5927 35.395 83.5927 35.005C83.5927 34.565 83.6677 34.205 83.8177 33.925C83.9677 33.645 84.1627 33.42 84.4027 33.25C84.6527 33.07 84.9327 32.935 85.2427 32.845C85.5627 32.755 85.8877 32.68 86.2177 32.62C86.5677 32.55 86.8977 32.5 87.2077 32.47C87.5277 32.43 87.8077 32.38 88.0477 32.32C88.2877 32.25 88.4777 32.155 88.6177 32.035C88.7577 31.905 88.8277 31.72 88.8277 31.48C88.8277 31.2 88.7727 30.975 88.6627 30.805C88.5627 30.635 88.4277 30.505 88.2577 30.415C88.0977 30.325 87.9127 30.265 87.7027 30.235C87.5027 30.205 87.3027 30.19 87.1027 30.19C86.5627 30.19 86.1127 30.295 85.7527 30.505C85.3927 30.705 85.1977 31.09 85.1677 31.66H83.8927C83.9127 31.18 84.0127 30.775 84.1927 30.445C84.3727 30.115 84.6127 29.85 84.9127 29.65C85.2127 29.44 85.5527 29.29 85.9327 29.2C86.3227 29.11 86.7377 29.065 87.1777 29.065C87.5277 29.065 87.8727 29.09 88.2127 29.14C88.5627 29.19 88.8777 29.295 89.1577 29.455C89.4377 29.605 89.6627 29.82 89.8327 30.1C90.0027 30.38 90.0877 30.745 90.0877 31.195V35.185C90.0877 35.485 90.1027 35.705 90.1327 35.845C90.1727 35.985 90.2927 36.055 90.4927 36.055C90.6027 36.055 90.7327 36.03 90.8827 35.98V36.97ZM88.8127 32.995C88.6527 33.115 88.4427 33.205 88.1827 33.265C87.9227 33.315 87.6477 33.36 87.3577 33.4C87.0777 33.43 86.7927 33.47 86.5027 33.52C86.2127 33.56 85.9527 33.63 85.7227 33.73C85.4927 33.83 85.3027 33.975 85.1527 34.165C85.0127 34.345 84.9427 34.595 84.9427 34.915C84.9427 35.125 84.9827 35.305 85.0627 35.455C85.1527 35.595 85.2627 35.71 85.3927 35.8C85.5327 35.89 85.6927 35.955 85.8727 35.995C86.0527 36.035 86.2427 36.055 86.4427 36.055C86.8627 36.055 87.2227 36 87.5227 35.89C87.8227 35.77 88.0677 35.625 88.2577 35.455C88.4477 35.275 88.5877 35.085 88.6777 34.885C88.7677 34.675 88.8127 34.48 88.8127 34.3V32.995ZM92.0694 29.245H93.2694V30.475H93.2994C93.8294 29.535 94.6694 29.065 95.8194 29.065C96.3294 29.065 96.7544 29.135 97.0944 29.275C97.4344 29.415 97.7094 29.61 97.9194 29.86C98.1294 30.11 98.2744 30.41 98.3544 30.76C98.4444 31.1 98.4894 31.48 98.4894 31.9V37H97.2144V31.75C97.2144 31.27 97.0744 30.89 96.7944 30.61C96.5144 30.33 96.1294 30.19 95.6394 30.19C95.2494 30.19 94.9094 30.25 94.6194 30.37C94.3394 30.49 94.1044 30.66 93.9144 30.88C93.7244 31.1 93.5794 31.36 93.4794 31.66C93.3894 31.95 93.3444 32.27 93.3444 32.62V37H92.0694V29.245ZM101.754 27.85H100.479V26.29H101.754V27.85ZM100.479 29.245H101.754V37H100.479V29.245ZM104.51 34.555C104.52 34.835 104.585 35.075 104.705 35.275C104.825 35.465 104.98 35.62 105.17 35.74C105.37 35.85 105.59 35.93 105.83 35.98C106.08 36.03 106.335 36.055 106.595 36.055C106.795 36.055 107.005 36.04 107.225 36.01C107.445 35.98 107.645 35.925 107.825 35.845C108.015 35.765 108.17 35.65 108.29 35.5C108.41 35.34 108.47 35.14 108.47 34.9C108.47 34.57 108.345 34.32 108.095 34.15C107.845 33.98 107.53 33.845 107.15 33.745C106.78 33.635 106.375 33.54 105.935 33.46C105.495 33.37 105.085 33.25 104.705 33.1C104.335 32.94 104.025 32.72 103.775 32.44C103.525 32.16 103.4 31.77 103.4 31.27C103.4 30.88 103.485 30.545 103.655 30.265C103.835 29.985 104.06 29.76 104.33 29.59C104.61 29.41 104.92 29.28 105.26 29.2C105.61 29.11 105.955 29.065 106.295 29.065C106.735 29.065 107.14 29.105 107.51 29.185C107.88 29.255 108.205 29.385 108.485 29.575C108.775 29.755 109.005 30.005 109.175 30.325C109.345 30.635 109.445 31.025 109.475 31.495H108.2C108.18 31.245 108.115 31.04 108.005 30.88C107.895 30.71 107.755 30.575 107.585 30.475C107.415 30.375 107.225 30.305 107.015 30.265C106.815 30.215 106.61 30.19 106.4 30.19C106.21 30.19 106.015 30.205 105.815 30.235C105.625 30.265 105.45 30.32 105.29 30.4C105.13 30.47 105 30.57 104.9 30.7C104.8 30.82 104.75 30.98 104.75 31.18C104.75 31.4 104.825 31.585 104.975 31.735C105.135 31.875 105.335 31.995 105.575 32.095C105.815 32.185 106.085 32.265 106.385 32.335C106.685 32.395 106.985 32.46 107.285 32.53C107.605 32.6 107.915 32.685 108.215 32.785C108.525 32.885 108.795 33.02 109.025 33.19C109.265 33.35 109.455 33.555 109.595 33.805C109.745 34.055 109.82 34.365 109.82 34.735C109.82 35.205 109.72 35.595 109.52 35.905C109.33 36.215 109.075 36.465 108.755 36.655C108.445 36.845 108.09 36.975 107.69 37.045C107.3 37.125 106.91 37.165 106.52 37.165C106.09 37.165 105.68 37.12 105.29 37.03C104.9 36.94 104.555 36.795 104.255 36.595C103.955 36.385 103.715 36.115 103.535 35.785C103.355 35.445 103.255 35.035 103.235 34.555H104.51ZM111.23 26.29H112.505V30.385H112.535C112.635 30.145 112.775 29.945 112.955 29.785C113.135 29.615 113.335 29.48 113.555 29.38C113.785 29.27 114.02 29.19 114.26 29.14C114.51 29.09 114.75 29.065 114.98 29.065C115.49 29.065 115.915 29.135 116.255 29.275C116.595 29.415 116.87 29.61 117.08 29.86C117.29 30.11 117.435 30.41 117.515 30.76C117.605 31.1 117.65 31.48 117.65 31.9V37H116.375V31.75C116.375 31.27 116.235 30.89 115.955 30.61C115.675 30.33 115.29 30.19 114.8 30.19C114.41 30.19 114.07 30.25 113.78 30.37C113.5 30.49 113.265 30.66 113.075 30.88C112.885 31.1 112.74 31.36 112.64 31.66C112.55 31.95 112.505 32.27 112.505 32.62V37H111.23V26.29Z" fill="black"/>
</svg>
