<?xml version="1.0" encoding="UTF-8"?>
<svg id="Layer_1" data-name="Layer 1" xmlns="http://www.w3.org/2000/svg" viewBox="0 0 1707.59 1362.91">
  <defs>
    <style>
      .cls-1 {
        fill: #231f20;
      }

      .cls-1, .cls-2, .cls-3 {
        stroke: #231f20;
        stroke-miterlimit: 10;
        stroke-width: 13px;
      }

      .cls-2 {
        fill: #fff;
      }

      .cls-3 {
        fill: none;
      }
    </style>
  </defs>
  <rect class="cls-2" x="33.53" y="140.19" width="1667.57" height="1216.22" rx="23.38" ry="23.38"/>
  <rect class="cls-2" x="6.5" y="114.03" width="1667.57" height="1216.22" rx="23.38" ry="23.38"/>
  <g>
    <path class="cls-3" d="M113.41,204.84c-24.28-3.09-38.32-49.96-31.35-104.69C89.03,45.42,114.37,3.57,138.65,6.66s38.32,49.96,31.35,104.69"/>
    <circle class="cls-1" cx="108.16" cy="206.72" r="10.81"/>
  </g>
  <g>
    <path class="cls-3" d="M259.41,204.84c-24.28-3.09-38.32-49.96-31.35-104.69,6.97-54.72,32.31-96.58,56.59-93.49s38.32,49.96,31.35,104.69"/>
    <circle class="cls-1" cx="254.16" cy="206.72" r="10.81"/>
  </g>
  <g>
    <path class="cls-3" d="M405.41,204.84c-24.28-3.09-38.32-49.96-31.35-104.69,6.97-54.72,32.31-96.58,56.59-93.49s38.32,49.96,31.35,104.69"/>
    <circle class="cls-1" cx="400.16" cy="206.72" r="10.81"/>
  </g>
  <g>
    <path class="cls-3" d="M551.4,204.84c-24.28-3.09-38.32-49.96-31.35-104.69,6.97-54.72,32.31-96.58,56.59-93.49s38.32,49.96,31.35,104.69"/>
    <circle class="cls-1" cx="546.16" cy="206.72" r="10.81"/>
  </g>
  <g>
    <path class="cls-3" d="M697.4,204.84c-24.28-3.09-38.32-49.96-31.35-104.69,6.97-54.72,32.31-96.58,56.59-93.49s38.32,49.96,31.35,104.69"/>
    <circle class="cls-1" cx="692.15" cy="206.72" r="10.81"/>
  </g>
  <g>
    <path class="cls-3" d="M843.4,204.84c-24.28-3.09-38.32-49.96-31.35-104.69,6.97-54.72,32.31-96.58,56.59-93.49s38.32,49.96,31.35,104.69"/>
    <circle class="cls-1" cx="838.15" cy="206.72" r="10.81"/>
  </g>
  <g>
    <path class="cls-3" d="M989.4,204.84c-24.28-3.09-38.32-49.96-31.35-104.69,6.97-54.72,32.31-96.58,56.59-93.49s38.32,49.96,31.35,104.69"/>
    <circle class="cls-1" cx="984.15" cy="206.72" r="10.81"/>
  </g>
  <g>
    <path class="cls-3" d="M1135.39,204.84c-24.28-3.09-38.32-49.96-31.35-104.69,6.97-54.72,32.31-96.58,56.59-93.49s38.32,49.96,31.35,104.69"/>
    <circle class="cls-1" cx="1130.14" cy="206.72" r="10.81"/>
  </g>
  <g>
    <path class="cls-3" d="M1281.39,204.84c-24.28-3.09-38.32-49.96-31.35-104.69,6.97-54.72,32.31-96.58,56.59-93.49s38.32,49.96,31.35,104.69"/>
    <circle class="cls-1" cx="1276.14" cy="206.72" r="10.81"/>
  </g>
  <g>
    <path class="cls-3" d="M1427.39,204.84c-24.28-3.09-38.32-49.96-31.35-104.69,6.97-54.72,32.31-96.58,56.59-93.49s38.32,49.96,31.35,104.69"/>
    <circle class="cls-1" cx="1422.14" cy="206.72" r="10.81"/>
  </g>
  <g>
    <path class="cls-3" d="M1573.38,204.84c-24.28-3.09-38.32-49.96-31.35-104.69,6.97-54.72,32.31-96.58,56.59-93.49s38.32,49.96,31.35,104.69"/>
    <circle class="cls-1" cx="1568.13" cy="206.72" r="10.81"/>
  </g>
</svg>