<svg width="24" height="24" viewBox="0 0 24 24" fill="none" xmlns="http://www.w3.org/2000/svg">
<g clip-path="url(#clip0_513_392)">
<path d="M12.0001 22.8001V5.38707C12.0001 5.38707 9.54506 2.66007 1.26806 2.55007C1.19984 2.5494 1.13216 2.56232 1.06898 2.58807C1.0058 2.61382 0.948378 2.6519 0.900064 2.70007C0.802649 2.79858 0.748029 2.93154 0.748064 3.07007V19.4441C0.746955 19.5789 0.798653 19.7088 0.892097 19.806C0.985541 19.9031 1.11331 19.9599 1.24806 19.9641C9.54306 20.0711 12.0001 22.8001 12.0001 22.8001Z" stroke="black" stroke-width="1.5" stroke-linecap="round" stroke-linejoin="round"/>
<path d="M9.00023 11.855C7.29849 11.2827 5.53108 10.9282 3.74023 10.8" stroke="black" stroke-width="1.5" stroke-linecap="round" stroke-linejoin="round"/>
<path d="M9.00023 16.05C7.29812 15.4799 5.53079 15.1271 3.74023 15" stroke="black" stroke-width="1.5" stroke-linecap="round" stroke-linejoin="round"/>
<path d="M15 11.855C16.7017 11.2827 18.4692 10.9282 20.26 10.8" stroke="black" stroke-width="1.5" stroke-linecap="round" stroke-linejoin="round"/>
<path d="M15 16.05C16.7021 15.4799 18.4694 15.1271 20.26 15" stroke="black" stroke-width="1.5" stroke-linecap="round" stroke-linejoin="round"/>
<path d="M20.26 2.67006C21.02 2.60406 21.842 2.56206 22.732 2.55006C22.7999 2.54965 22.8672 2.5627 22.93 2.58844C22.9928 2.61419 23.0499 2.65212 23.098 2.70006C23.1954 2.79856 23.25 2.93152 23.25 3.07006V19.4441C23.2511 19.5789 23.1994 19.7088 23.106 19.8059C23.0125 19.9031 22.8848 19.9599 22.75 19.9641C14.457 20.0711 12 22.8001 12 22.8001" stroke="black" stroke-width="1.5" stroke-linecap="round" stroke-linejoin="round"/>
<path d="M12 22.7999V5.38688C12 5.38688 13.143 4.11688 16.5 3.27588" stroke="black" stroke-width="1.5" stroke-linecap="round" stroke-linejoin="round"/>
<path d="M20.25 7.79995V1.19995C18.9861 1.30071 17.7322 1.50134 16.5 1.79995V7.79995L18.375 6.29995L20.25 7.79995Z" stroke="black" stroke-width="1.5" stroke-linecap="round" stroke-linejoin="round"/>
</g>
<defs>
<clipPath id="clip0_513_392">
<rect width="24" height="24" fill="white"/>
</clipPath>
</defs>
</svg>
