<svg width="36" height="36" viewBox="0 0 36 36" fill="none" xmlns="http://www.w3.org/2000/svg">
<path stroke="#2E2E1F" stroke-opacity="0.12" class="st0" d="M0.5,18C0.5,8.3,8.3,0.5,18,0.5S35.5,8.3,35.5,18S27.7,35.5,18,35.5S0.5,27.7,0.5,18z"/>
<path fill="black" d="M24.6,27.6c0.2-0.1,0.5-0.1,0.7,0.1c0.1,0.2,0.1,0.5-0.1,0.7c-1,0.7-2.2,1.3-3.4,1.7c-1,0.3-2.1,0.5-3.3,0.6v1.8
	c0,0.3-0.2,0.5-0.5,0.5c-0.3,0-0.5-0.2-0.5-0.5v-1.8c-3.3-0.1-6.2-1.5-8.4-3.7s-3.5-5.1-3.7-8.4H3.7c-0.3,0-0.5-0.2-0.5-0.5
	c0-0.3,0.2-0.5,0.5-0.5h1.8c0-0.1,0-0.2,0-0.3c0-0.3,0-0.5,0.1-0.8c0-0.3,0.3-0.4,0.5-0.4c0.3,0,0.4,0.3,0.4,0.5
	c0,0.2-0.1,0.5-0.1,0.8c0,0.1,0,0.2,0,0.3h1.8c0.3,0,0.5,0.2,0.5,0.5c0,0.3-0.2,0.5-0.5,0.5H6.4c0.1,3,1.4,5.7,3.4,7.7
	c2,2,4.7,3.3,7.7,3.4v-1.8c0-0.3,0.2-0.5,0.5-0.5c0.3,0,0.5,0.2,0.5,0.5v1.8c1,0,2-0.2,3-0.5C22.6,28.7,23.7,28.2,24.6,27.6
	L24.6,27.6z M11.4,17.5c-0.3-0.3-0.2-0.8,0.1-1.1c0.3-0.3,0.8-0.2,1.1,0.1l3.4,4.4l7.6-7.6c0.3-0.3,0.8-0.3,1.1,0
	c0.3,0.3,0.3,0.8,0,1.1l-8.2,8.2l-0.1,0.1c-0.3,0.3-0.8,0.2-1.1-0.1L11.4,17.5L11.4,17.5z M27.8,18.5c-0.3,0-0.5-0.2-0.5-0.5
	s0.2-0.5,0.5-0.5h1.8c-0.1-3-1.4-5.7-3.4-7.7c-2-2-4.7-3.3-7.7-3.4v1.8c0,0.3-0.2,0.5-0.5,0.5c-0.3,0-0.5-0.2-0.5-0.5V6.4
	c-2.3,0.1-4.5,0.9-6.2,2.1c-1.9,1.4-3.5,3.4-4.3,5.6c-0.1,0.2-0.4,0.4-0.6,0.3c-0.2-0.1-0.4-0.4-0.3-0.6c0.9-2.5,2.5-4.6,4.6-6.1
	c1.9-1.4,4.3-2.2,6.8-2.3V3.6c0-0.3,0.2-0.5,0.5-0.5c0.3,0,0.5,0.2,0.5,0.5v1.8c3.3,0.1,6.2,1.5,8.4,3.7s3.5,5.1,3.7,8.4h1.8
	c0.3,0,0.5,0.2,0.5,0.5c0,0.3-0.2,0.5-0.5,0.5h-1.8c0,1.1-0.2,2.3-0.6,3.3l0,0c-0.4,1.2-1,2.4-1.7,3.4c-0.2,0.2-0.5,0.3-0.7,0.1
	c-0.2-0.2-0.3-0.5-0.1-0.7c0.7-1,1.2-2,1.6-3.1l0,0c0.3-1,0.5-2,0.5-3L27.8,18.5L27.8,18.5z M26.2,26.2c0.2-0.2,0.5-0.2,0.7,0
	c0.2,0.2,0.2,0.5,0,0.7l0,0c-0.2,0.2-0.5,0.2-0.7,0C26,26.8,26,26.4,26.2,26.2L26.2,26.2z"/>
</svg>