<svg width="36" height="36" viewBox="0 0 36 36" fill="none" xmlns="http://www.w3.org/2000/svg">
<path d="M0.5 18C0.5 8.33502 8.33502 0.5 18 0.5C27.665 0.5 35.5 8.33502 35.5 18C35.5 27.665 27.665 35.5 18 35.5C8.33502 35.5 0.5 27.665 0.5 18Z" stroke="#2E2E1F" stroke-opacity="0.12"/>
<g clip-path="url(#clip0_470_329)">
<path d="M19.045 20.136L15.333 20.667L15.863 16.954L25.409 7.40804C25.831 6.98608 26.4033 6.74902 27 6.74902C27.5967 6.74902 28.169 6.98608 28.591 7.40804C29.013 7.83 29.25 8.4023 29.25 8.99904C29.25 9.59578 29.013 10.1681 28.591 10.59L19.045 20.136Z" stroke="black" stroke-width="1.5" stroke-linecap="round" stroke-linejoin="round"/>
<path d="M24.3481 8.46899L27.5301 11.651" stroke="black" stroke-width="1.5" stroke-linecap="round" stroke-linejoin="round"/>
<path d="M24.75 20.25V27.75C24.75 28.1478 24.592 28.5294 24.3107 28.8107C24.0294 29.092 23.6478 29.25 23.25 29.25H8.25C7.85218 29.25 7.47064 29.092 7.18934 28.8107C6.90804 28.5294 6.75 28.1478 6.75 27.75V12.75C6.75 12.3522 6.90804 11.9706 7.18934 11.6893C7.47064 11.408 7.85218 11.25 8.25 11.25H15.75" stroke="black" stroke-width="1.5" stroke-linecap="round" stroke-linejoin="round"/>
</g>
<defs>
<clipPath id="clip0_470_329">
<rect width="24" height="24" fill="white" transform="translate(6 6)"/>
</clipPath>
</defs>
</svg>
