<svg width="36" height="36" viewBox="0 0 36 36" fill="none" xmlns="http://www.w3.org/2000/svg">fill
<path stroke="#2E2E1F" stroke-opacity="0.12" class="st0" d="M0.5,18C0.5,8.3,8.3,0.5,18,0.5c9.7,0,17.5,7.8,17.5,17.5c0,9.7-7.8,17.5-17.5,17.5C8.3,35.5,0.5,27.7,0.5,18z"
	/>
<path fill="black" d="M27.7,17.5c0,0.5,0.4,0.9,0.9,0.9s0.9-0.4,0.9-0.9c0-6.3-5.1-11.4-11.4-11.4S6.8,11.2,6.8,17.5s5.1,11.4,11.4,11.4
	c0.5,0,0.9-0.4,0.9-0.9S18.7,27,18.2,27c-5.2,0-9.5-4.3-9.5-9.5S12.9,8,18.2,8S27.7,12.2,27.7,17.5z"/>
<path fill="black" d="M18.2,13.2c2.4,0,4.3,1.9,4.3,4.3c0,0.5,0.4,0.9,0.9,0.9c0.5,0,0.9-0.4,0.9-0.9c0-3.4-2.8-6.1-6.1-6.1S12,14.1,12,17.5
	s2.8,6.1,6.1,6.1c0.5,0,0.9-0.4,0.9-0.9c0-0.5-0.4-0.9-0.9-0.9c-2.4,0-4.3-1.9-4.3-4.3S15.8,13.2,18.2,13.2z"/>
<path fill="black" d="M26.2,24.2l2.3-0.6c0.4-0.1,0.7-0.5,0.7-0.9c0-0.4-0.3-0.8-0.7-0.9l-6.3-1.4c-0.6-0.1-1.2,0.5-1.1,1.1l1.4,6.3
	c0.1,0.4,0.5,0.7,0.9,0.7c0,0,0,0,0,0c0.4,0,0.8-0.3,0.9-0.7l0.6-2.3l3.6,3.6c0.4,0.4,0.9,0.4,1.3,0c0.4-0.4,0.4-0.9,0-1.3
	L26.2,24.2z"/>
</svg>
