<?xml version="1.0" encoding="utf-8"?>
<!-- Generator: Adobe Illustrator 26.2.1, SVG Export Plug-In . SVG Version: 6.00 Build 0)  -->
<svg version="1.1" id="Layer_1" xmlns="http://www.w3.org/2000/svg" xmlns:xlink="http://www.w3.org/1999/xlink" x="0px" y="0px"
	 viewBox="0 0 91 91" style="enable-background:new 0 0 91 91;" xml:space="preserve">
<style type="text/css">
	.st0{fill:#FFFFFF;}
</style>
<path class="st0" d="M26.1,60L43,74c0.4,0.3,0.8,0.5,1.3,0.5c0.3,0,0.6-0.1,0.9-0.2c0.7-0.3,1.1-1,1.1-1.8V21.4
	c0-0.8-0.4-1.5-1.1-1.8c-0.7-0.3-1.5-0.2-2.1,0.3L26.1,34H12.9c-1.1,0-2,0.9-2,2v22c0,1.1,0.9,2,2,2L26.1,60z"/>
<path class="st0" d="M51.9,35.3c-0.8,0.8-0.8,2.1,0,2.8c5.2,5.2,5.2,13.7,0,18.9c-0.8,0.8-0.8,2.1,0,2.8c0.4,0.4,0.9,0.6,1.4,0.6
	s1-0.2,1.4-0.6c6.8-6.8,6.8-17.8,0-24.6C54,34.5,52.7,34.5,51.9,35.3L51.9,35.3z"/>
<path class="st0" d="M59.7,64.8c-0.8,0.8-0.8,2.1,0,2.8c0.4,0.4,0.9,0.6,1.4,0.6s1-0.2,1.4-0.6c11-11,11-29,0-40
	c-0.8-0.8-2.1-0.8-2.8,0c-0.8,0.8-0.8,2.1,0,2.8C69.1,39.9,69.1,55.3,59.7,64.8L59.7,64.8z"/>
<path class="st0" d="M67.4,19.8c-0.8,0.8-0.8,2.1,0,2.8c13.8,13.8,13.8,36.1,0,49.9c-0.8,0.8-0.8,2.1,0,2.8c0.4,0.4,0.9,0.6,1.4,0.6
	c0.5,0,1-0.2,1.4-0.6c15.3-15.3,15.3-40.2,0-55.5C69.5,19,68.2,19,67.4,19.8L67.4,19.8z"/>
</svg>
