<svg id="Layer_1" data-name="Layer 1" xmlns="http://www.w3.org/2000/svg" width="36" height="36" viewBox="0 0 36 36"><defs><style>.cls-1{fill:none;stroke:#2e2e1f;stroke-opacity:0.12;}</style></defs><path class="cls-1" d="M.5,18A17.5,17.5,0,1,1,18,35.5,17.46,17.46,0,0,1,.5,18Z"/><path d="M24.79,20.37l5.45-5.31a.91.91,0,0,0,.24-1,.93.93,0,0,0-.75-.64L22.2,12.39,18.84,5.56h0a.94.94,0,0,0-1.68,0L13.8,12.38,6.28,13.47a.93.93,0,0,0-.52,1.59l5.45,5.3-1.3,7.5a.93.93,0,0,0,.38.91.91.91,0,0,0,.55.18.84.84,0,0,0,.43-.11L18,25.3l6.73,3.54a.93.93,0,0,0,1.35-1Zm.48,7.79a.17.17,0,0,1-.19,0l-6.9-3.65a.58.58,0,0,0-.18,0,.39.39,0,0,0-.18,0l-6.9,3.65a.17.17,0,0,1-.19,0,.16.16,0,0,1-.07-.17L12,20.3a.39.39,0,0,0-.11-.34L6.29,14.52a.16.16,0,0,1,0-.18.16.16,0,0,1,.14-.12l7.73-1.11a.42.42,0,0,0,.29-.21l3.44-7a.19.19,0,0,1,.32,0l3.44,7a.4.4,0,0,0,.29.21l7.72,1.11a.17.17,0,0,1,.1.3L24.11,20a.42.42,0,0,0-.11.34L25.34,28A.16.16,0,0,1,25.27,28.16Zm5.37-4.32a.38.38,0,0,1-.34.2.33.33,0,0,1-.17,0l-2.22-1.17a.38.38,0,0,1-.15-.51.37.37,0,0,1,.51-.16l2.21,1.17A.37.37,0,0,1,30.64,23.84ZM8.25,22.32a.38.38,0,0,1-.16.51L5.87,24a.35.35,0,0,1-.17,0,.38.38,0,0,1-.34-.2.39.39,0,0,1,.16-.52l2.21-1.16A.38.38,0,0,1,8.25,22.32ZM8.36,8.08a.37.37,0,1,1,.53-.53l1.82,1.81a.38.38,0,0,1,0,.54.39.39,0,0,1-.27.11.43.43,0,0,1-.27-.11ZM25.29,9.9a.38.38,0,0,1,0-.54L27.1,7.55a.38.38,0,0,1,.54,0,.39.39,0,0,1,0,.53L25.82,9.9a.39.39,0,0,1-.27.11A.38.38,0,0,1,25.29,9.9Zm-6.91,19v2.47a.38.38,0,0,1-.76,0V28.92a.38.38,0,0,1,.76,0Z"/></svg>