<svg id="Layer_1" data-name="Layer 1" xmlns="http://www.w3.org/2000/svg" viewBox="0 0 36 36"><defs><style>.cls-1{fill:none;stroke:#2e2e1f;stroke-opacity:0.12;}</style></defs><path class="cls-1" d="M.5,18A17.5,17.5,0,1,1,18,35.5,17.46,17.46,0,0,1,.5,18Z"/><path d="M13.2,7.56a16.53,16.53,0,0,0-1.47,3.81,21.85,21.85,0,0,1-2.55-.66,11.28,11.28,0,0,1,4-3.15Zm9.6,0h0a11.28,11.28,0,0,1,4,3.15h0a21.85,21.85,0,0,1-2.55.66A16.71,16.71,0,0,0,22.8,7.56Zm-4.19-1h0a11.65,11.65,0,0,1,2.23.34h0a13,13,0,0,1,2.22,4.72h0a34.87,34.87,0,0,1-4.45.36Zm-1.23,5.42h0a34.87,34.87,0,0,1-4.45-.36h0a13,13,0,0,1,2.22-4.72,11.65,11.65,0,0,1,2.23-.34Zm-8.95-.17h0a22.79,22.79,0,0,0,3,.8,25.55,25.55,0,0,0-.51,4.64H6.69a11.25,11.25,0,0,1,1.74-5.44Zm4.22,1h0a36,36,0,0,0,4.74.38v4H12.17a24,24,0,0,1,.48-4.43Zm10.7,0h0a24,24,0,0,1,.48,4.43H18.61v-4a36,36,0,0,0,4.74-.38Zm4.22-1h0a11.29,11.29,0,0,1,1.74,5.44H25.06a25.55,25.55,0,0,0-.51-4.64,24.44,24.44,0,0,0,3-.8ZM17.38,22.47h0a34.32,34.32,0,0,0-4.73.38,24.8,24.8,0,0,1-.49-4.43h5.23Zm6.46-4a24.8,24.8,0,0,1-.49,4.43,35.92,35.92,0,0,0-4.73-.39v-4Zm-12.9,0a25.55,25.55,0,0,0,.51,4.64h0a22.79,22.79,0,0,0-3,.8,11.25,11.25,0,0,1-1.74-5.44Zm18.37,0a11.29,11.29,0,0,1-1.74,5.44,22.79,22.79,0,0,0-3-.8,26.47,26.47,0,0,0,.51-4.64Zm-5,5.83a21.85,21.85,0,0,1,2.55.66,11.37,11.37,0,0,1-4,3.15h0a16.71,16.71,0,0,0,1.47-3.81Zm-12.54,0a16.71,16.71,0,0,0,1.47,3.81,11.2,11.2,0,0,1-4-3.16,24.16,24.16,0,0,1,2.55-.65Zm6.89-.56h0a36.89,36.89,0,0,1,4.45.35h0a13,13,0,0,1-2.22,4.72h0a11.75,11.75,0,0,1-2.24.34Zm-1.24,5.42a11.77,11.77,0,0,1-2.23-.34h0a13,13,0,0,1-2.22-4.72h0a36.73,36.73,0,0,1,4.45-.35ZM18,5.26A12.56,12.56,0,1,0,30.55,17.81,12.55,12.55,0,0,0,18,5.26Z"/></svg>