<?xml version="1.0" encoding="utf-8"?>
<!-- Generator: Adobe Illustrator 26.2.1, SVG Export Plug-In . SVG Version: 6.00 Build 0)  -->
<svg version="1.1" id="Layer_1" xmlns="http://www.w3.org/2000/svg" xmlns:xlink="http://www.w3.org/1999/xlink" x="0px" y="0px"
	 viewBox="0 0 24 24" style="enable-background:new 0 0 24 24;" xml:space="preserve">
<style type="text/css">
	.st0{fill:#FFFFFF;}
	.st1{display:none;fill:none;stroke:#000000;stroke-linecap:round;stroke-linejoin:round;}
	.st2{display:none;}
	.st3{display:inline;}
</style>
<g id="social">
	<circle id="Ellipse_17" class="st0" cx="12" cy="12" r="12"/>
	<path id="Vector" class="st1" d="M16.7,4h-2.4c-1.1,0-2.1,0.4-2.8,1.2c-0.7,0.8-1.2,1.8-1.2,2.8v2.4H8v3.2h2.4V20h3.2v-6.4h2.4
		l0.8-3.2h-3.2V8c0-0.2,0.1-0.4,0.2-0.6c0.1-0.2,0.4-0.2,0.6-0.2h2.4V4z"/>
</g>
<g class="st2">
	<g class="st3">
		<path d="M10.5,14.9c0,0.1,0,0.1,0,0.1c0,0.7,0,1.3,0,2c0,0.2,0,0.3,0.2,0.3c1.3,0.3,2.6,0.2,3.8-0.4c1.6-0.8,2.6-2.2,2.9-4
			c0.3-1.7-0.2-3.2-1.3-4.5c-0.9-1-1.9-1.6-3.2-1.8c-1.7-0.3-3.2,0.2-4.5,1.3c-1,0.9-1.6,2.1-1.8,3.4c0,0.3-0.1,0.6-0.1,0.9
			c0,2.2,0,4.4,0,6.5c0,0.1,0,0.2,0,0.3c-0.1,0-1.4,0-1.6,0c0-0.1,0-0.1,0-0.2c0-0.7,0-1.4,0-2c0-1.6,0-3.3,0-4.9
			c0-0.6,0.1-1.1,0.2-1.7C5.4,9.1,6,8.1,6.8,7.2C7.8,6.1,9,5.4,10.5,5c0.6-0.1,1.3-0.2,1.9-0.2c0.2,0,0.4,0.1,0.6,0.1
			c0.7,0.1,1.3,0.3,2,0.6c0.8,0.4,1.5,0.9,2.1,1.5c0.7,0.7,1.2,1.6,1.6,2.6c0.2,0.6,0.3,1.2,0.4,1.8c0.1,1.2-0.1,2.3-0.5,3.4
			c-0.4,0.9-0.9,1.6-1.5,2.3c-1.1,1.1-2.3,1.7-3.8,2c-0.4,0.1-0.7,0.1-1.1,0.1c-1.1,0-2.1,0-3.2,0c-0.1,0-0.1,0-0.2,0
			c0-0.1,0-0.1,0-0.2c0-2.4,0-4.7,0-7.1c0-1.5,1.1-2.8,2.5-3.1c1.7-0.4,3.5,0.7,3.9,2.5c0.4,1.8-0.7,3.5-2.5,3.9
			c-0.7,0.1-1.3,0.1-1.9-0.2C10.6,15,10.6,14.9,10.5,14.9z"/>
	</g>
</g>
<g>
	<path d="M16.6,7.2H7.4C6,7.2,4.9,8.3,4.9,9.7v5.3c0,1.4,1.1,2.5,2.5,2.5h9.2c1.4,0,2.5-1.1,2.5-2.5V9.7C19.1,8.3,18,7.2,16.6,7.2z
		 M18.1,14.9c0,0.8-0.7,1.5-1.5,1.5H7.4c-0.8,0-1.5-0.7-1.5-1.5V9.7c0-0.8,0.7-1.5,1.5-1.5h9.2c0.8,0,1.5,0.7,1.5,1.5L18.1,14.9
		L18.1,14.9z"/>
	<path d="M14.7,11.9L11,9.4c-0.2-0.1-0.4-0.1-0.5,0c-0.2,0.1-0.3,0.3-0.3,0.4v5c0,0.2,0.1,0.4,0.3,0.4c0.1,0,0.2,0.1,0.2,0.1
		c0.1,0,0.2,0,0.3-0.1l3.8-2.5c0.1-0.1,0.2-0.3,0.2-0.4C15,12.1,14.9,12,14.7,11.9z M11.2,13.8v-3.1l2.3,1.5L11.2,13.8z"/>
</g>
</svg>
